<svg xmlns="http://www.w3.org/2000/svg" version="1.1" xmlns:xlink="http://www.w3.org/1999/xlink" xmlns:svgjs="http://svgjs.com/svgjs" width="1000" height="1000"><rect width="1000" height="1000" rx="200" ry="200" fill="#13222c"></rect><g transform="matrix(3.4722222222222223,0,0,3.4722222222222223,0.5545769797431035,-0.000028292338072333223)"><svg xmlns="http://www.w3.org/2000/svg" version="1.1" xmlns:xlink="http://www.w3.org/1999/xlink" xmlns:svgjs="http://svgjs.com/svgjs" width="288" height="288"><svg id="SvgjsSvg1001" width="288" height="288" xmlns="http://www.w3.org/2000/svg" version="1.1" xmlns:xlink="http://www.w3.org/1999/xlink" xmlns:svgjs="http://svgjs.com/svgjs"><defs id="SvgjsDefs1002"></defs><g id="SvgjsG1008"><svg xmlns="http://www.w3.org/2000/svg" xmlns:svgjs="http://svgjs.com/svgjs" xmlns:xlink="http://www.w3.org/1999/xlink" viewBox="0 0 288 288" width="288" height="288"><svg xmlns="http://www.w3.org/2000/svg" fill-rule="evenodd" stroke-linejoin="round" stroke-miterlimit="2" clip-rule="evenodd" viewBox="0 0 390 290" width="288" height="288"><path fill="#51ed81" d="m87.587,68.49588c-2.745,10.215 -2.073,18.546 2.193,27.216c6.4,13.006 18.948,21.746 40.897,28.485c13.805,4.24 31.66,8.105 41.45,8.976l2.93,0.26l0,11.435c0,9.41 -0.104,11.729 -0.59,13.09c-2.112,5.914 -0.292,13.065 4.56,17.917c2.786,2.785 5.89,4.474 10.062,5.474c16.24,3.893 30.305,-8.937 25.863,-23.593c-0.444,-1.464 -0.563,-4.226 -0.563,-13.066l0,-11.21l4.186,-0.465c2.303,-0.256 6.94,-0.98 10.306,-1.609c25.421,-4.749 44.377,-11.087 55.468,-18.545c7.15,-4.809 13.713,-12.37 16.549,-19.063c2.149,-5.073 2.555,-7.334 2.55,-14.172c-0.007,-5.674 -0.105,-6.6 -1.087,-10.211c-1.15,-4.228 -1.745,-5.438 -1.745,-3.549c0,2.873 -2.42,8.425 -5.504,12.625c-12.77,17.397 -48.164,35.209 -80.723,40.625c-3.224,0.537 -7.266,1.104 -8.981,1.26l-3.12,0.283l-0.095,21.241l-0.095,21.241l-1.135,1.606c-2.763,3.912 -8.085,4.41 -11.517,1.08c-0.836,-0.812 -1.656,-2.067 -1.882,-2.88c-0.259,-0.934 -0.401,-8.686 -0.402,-21.96l-0.003,-20.517l-1.304,0c-2.143,0 -9.72,-1.08 -14.868,-2.119c-36.26,-7.32 -69.538,-26 -79.091,-44.398c-1.281,-2.468 -1.849,-4.014 -3.044,-8.293c-0.201,-0.722 -0.472,-0.115 -1.265,2.836m5.161,44.473c0.972,9.303 5.933,16.955 13.2,20.36c1.758,0.824 4.964,1.93 7.126,2.456c8.181,1.995 37.083,5.537 54.892,6.726c2.148,0.144 2.175,0.133 2.175,-0.878c0,-0.563 0.102,-1.532 0.226,-2.153l0.225,-1.129l-2.4,-0.266c-4.022,-0.446 -17.014,-3.133 -26.652,-5.511c-23.047,-5.687 -38.872,-12.379 -46.804,-19.791l-2.225,-2.08l0.237,2.266m202.12,-0.272c-5.79,5.46 -17.778,11.376 -32.12,15.853c-11.563,3.61 -29.762,7.844 -42.553,9.902c-0.875,0.14 -1.157,0.365 -1.062,0.843c0.072,0.359 0.236,1.31 0.366,2.113l0.235,1.46l3.284,-0.26c5.549,-0.439 21.107,-2.067 27.488,-2.876c28.02,-3.551 34.155,-5.338 39.986,-11.648c2.462,-2.665 4.42,-6.428 5.538,-10.64c0.718,-2.707 1.399,-6.822 1.124,-6.793c-0.072,0.008 -1.1,0.928 -2.286,2.046m-190.73,27.477c0.488,1.651 3.295,6.298 4.943,8.181c1.962,2.243 5.196,4.032 8.43,4.662c4.472,0.872 17.735,0.034 42.608,-2.69c9.664,-1.06 9.428,-0.988 9.569,-2.886l0.114,-1.54l-2.762,-0.224c-1.518,-0.124 -5.314,-0.324 -8.434,-0.446c-8.514,-0.33 -31.873,-1.645 -37.252,-2.096c-7.264,-0.609 -12.19,-1.658 -16.778,-3.575c-0.608,-0.254 -0.669,-0.169 -0.437,0.614m180.561,-0.422c-1.306,0.764 -7.197,2.218 -11.314,2.793c-5.919,0.825 -23.33,1.947 -48.125,3.099l-5.2,0.242l0,1.633c0,1.957 -0.662,1.753 9.076,2.81c35.185,3.818 42.107,3.944 47.752,0.872c2.994,-1.63 6.624,-6.126 8.399,-10.404c0.6,-1.446 0.475,-1.667 -0.588,-1.045m-119.476,13.318c-8.349,1.41 -30.827,4.923 -39.481,6.17c-4.97,0.717 -9.115,1.38 -9.209,1.474c-0.094,0.094 1.18,1.541 2.83,3.216c4.773,4.844 8.358,5.847 15.05,4.209c5.627,-1.378 34.037,-11.059 34.856,-11.878c0.086,-0.087 0.105,-0.99 0.041,-2.01l-0.116,-1.852l-3.97,0.67m54.914,1.337l0.112,2.07l4.916,1.862c7.296,2.766 25.603,8.852 29.46,9.795c4.33,1.058 7.94,0.929 10.629,-0.38c1.04,-0.507 3.336,-2.317 5.102,-4.024l3.211,-3.102l-1.32,-0.212c-0.726,-0.117 -5.065,-0.735 -9.64,-1.374c-6.858,-0.957 -26.122,-3.979 -39.634,-6.215l-2.948,-0.489l0.112,2.07m-54.347,6.915c-4.64,1.944 -22.843,9.041 -29.395,11.461c-3.478,1.285 -6.329,2.537 -6.335,2.782c-0.018,0.845 7.75,7.378 12.798,10.763c4.412,2.959 5.133,3.325 5.673,2.878c4.775,-3.951 16.07,-14.232 19.11,-17.395l1.851,-1.926l-0.518,-1.922c-0.285,-1.056 -0.491,-3.24 -0.458,-4.852c0.034,-1.612 0.03,-2.924 -0.009,-2.914a189.7,189.7 0 0 0 -2.717,1.125m55.268,1.57c0.124,1.821 -0.004,3.484 -0.373,4.847l-0.56,2.075l1.763,1.89c3.117,3.336 15.915,15.122 19.054,17.545c0.562,0.434 1.04,0.257 3.592,-1.331c5.667,-3.525 15.236,-11.198 15.236,-12.218c0,-0.152 -2,-1.013 -4.444,-1.912c-3.264,-1.2 -29.904,-11.76 -34.01,-13.481c-0.328,-0.138 -0.396,0.544 -0.258,2.585m-53.212,13.038c-1.547,1.575 -5.791,5.671 -9.431,9.104c-3.64,3.433 -6.673,6.386 -6.74,6.562c-0.167,0.446 7.565,4.268 12.695,6.275c5.571,2.178 12.76,4.115 18.502,4.985l4.602,0.697l0.21,-1.17c0.624,-3.46 2.14,-14.782 2.044,-15.26c-0.07,-0.348 -1.175,-0.824 -2.949,-1.269c-4.58,-1.148 -8.126,-3.1 -11.193,-6.164c-1.477,-1.474 -3.189,-3.567 -3.806,-4.651l-1.122,-1.971l-2.812,2.862m49.649,-0.52c-1.428,2.53 -4.668,5.764 -7.446,7.433c-2.154,1.294 -7.634,3.427 -8.831,3.438c-1.547,0.014 -1.561,0.306 -0.418,8.509c0.608,4.365 1.106,8.064 1.106,8.22c0.002,1.24 12.681,-1.354 20.936,-4.283c4.683,-1.662 14.993,-6.53 14.993,-7.08c0,-0.185 -0.894,-1.084 -1.986,-1.996c-1.092,-0.913 -5.319,-4.94 -9.394,-8.947c-4.075,-4.008 -7.505,-7.287 -7.622,-7.287c-0.118,0 -0.72,0.897 -1.338,1.993m-24.79,11.496c-0.14,0.138 -0.253,0.947 -0.253,1.796c0,0.85 -0.428,5.714 -0.95,10.81c-0.528,5.156 -0.845,10.02 -0.714,10.968c0.568,4.118 3.145,13.626 3.926,14.487c0.484,0.533 2.439,-5.463 3.599,-11.046c0.81,-3.9 0.774,-5.686 -0.342,-16.843c-0.54,-5.394 -0.98,-9.947 -0.98,-10.116c0,-0.368 -3.924,-0.42 -4.287,-0.056" class="color000 svgShape color3fa435"></path></svg></svg></g></svg></svg></g></svg>